<?xml version="1.0" encoding="utf-8"?>
<!-- Generator: Adobe Illustrator 26.0.1, SVG Export Plug-In . SVG Version: 6.00 Build 0)  -->
<svg version="1.0" xmlns="http://www.w3.org/2000/svg" xmlns:xlink="http://www.w3.org/1999/xlink" x="0px" y="0px"
	 viewBox="0 0 300 300" enable-background="new 0 0 300 300" xml:space="preserve">
<g id="Layer_1">
	<g>
		
			<rect x="126.9" y="140.6" fill="#FFFFFF" stroke="#29ABE2" stroke-width="6" stroke-linejoin="round" stroke-miterlimit="10" width="44.2" height="57.8"/>
		<circle fill="#29ABE2" cx="142.7" cy="162.4" r="1.5"/>
		<circle fill="#29ABE2" cx="156.5" cy="162.4" r="1.5"/>
		<path fill="#FFFFFF" stroke="#29ABE2" stroke-width="6" stroke-linejoin="round" stroke-miterlimit="10" d="M153.5,168.5
			c0,1.7-1.4,3.1-3.1,3.1c-1.7,0-3.1-1.4-3.1-3.1"/>
	</g>
	
		<line fill="#FFFFFF" stroke="#29ABE2" stroke-width="6" stroke-linecap="round" stroke-linejoin="round" stroke-miterlimit="10" x1="172.7" y1="151.2" x2="196.4" y2="151.2"/>
	
		<line fill="#FFFFFF" stroke="#29ABE2" stroke-width="6" stroke-linecap="round" stroke-linejoin="round" stroke-miterlimit="10" x1="158" y1="191.4" x2="158" y2="215.5"/>
	
		<line fill="#FFFFFF" stroke="#29ABE2" stroke-width="6" stroke-linecap="round" stroke-linejoin="round" stroke-miterlimit="10" x1="141.3" y1="199.9" x2="141.3" y2="222.5"/>
	
		<line fill="#FFFFFF" stroke="#29ABE2" stroke-width="6" stroke-linecap="round" stroke-linejoin="round" stroke-miterlimit="10" x1="125.2" y1="153.9" x2="106" y2="135.5"/>
	
		<line fill="#FFFFFF" stroke="#29ABE2" stroke-width="6" stroke-linecap="round" stroke-linejoin="round" stroke-miterlimit="10" x1="145.5" y1="126.8" x2="145.6" y2="139"/>
	
		<line fill="#FFFFFF" stroke="#29ABE2" stroke-width="6" stroke-linecap="round" stroke-linejoin="round" stroke-miterlimit="10" x1="157.2" y1="131.3" x2="157.2" y2="138.6"/>
	<g>
		
			<line fill="#FFFFFF" stroke="#29ABE2" stroke-width="6" stroke-linecap="round" stroke-linejoin="round" stroke-miterlimit="10" x1="201.3" y1="108.7" x2="213.6" y2="84.2"/>
		
			<line fill="#FFFFFF" stroke="#29ABE2" stroke-width="6" stroke-linecap="round" stroke-linejoin="round" stroke-miterlimit="10" x1="141.3" y1="104.3" x2="141.3" y2="77.5"/>
		
			<line fill="#FFFFFF" stroke="#29ABE2" stroke-width="6" stroke-linecap="round" stroke-linejoin="round" stroke-miterlimit="10" x1="98.7" y1="96.5" x2="86.4" y2="77.5"/>
	</g>
</g>
<g id="Layer_2">
</g>
</svg>
