<?xml version="1.0" encoding="utf-8"?>
<!-- Generator: Adobe Illustrator 26.0.1, SVG Export Plug-In . SVG Version: 6.00 Build 0)  -->
<svg version="1.0" id="Layer_1" xmlns="http://www.w3.org/2000/svg" xmlns:xlink="http://www.w3.org/1999/xlink" x="0px" y="0px"
	 viewBox="0 0 100 100" enable-background="new 0 0 100 100" xml:space="preserve">
<g>
	<path d="M65.2,70.4H31.4c-1.3,0-2.3-1-2.3-2.3V23.9c0-1.3,1-2.3,2.3-2.3h33.9c1.3,0,2.3,1,2.3,2.3v44.3
		C67.5,69.4,66.5,70.4,65.2,70.4z M33.7,65.8h29.3V26.2H33.7V65.8z"/>
	<circle cx="43.5" cy="40.6" r="1.1"/>
	<circle cx="54.1" cy="40.6" r="1.1"/>
	<g>
		<path d="M51.7,45.3c0,1.3-1.1,2.4-2.4,2.4c-1.3,0-2.4-1.1-2.4-2.4"/>
		<path d="M49.3,50c-2.6,0-4.7-2.1-4.7-4.7h4.6c0,0.1,0.2,0.1,0.2,0H54C54,47.9,51.9,50,49.3,50z"/>
	</g>
	<g>
		<path d="M84.6,34.3H66.5c-1.3,0-2.3-1-2.3-2.3c0-1.3,1-2.3,2.3-2.3h18.1c1.3,0,2.3,1,2.3,2.3C86.9,33.3,85.9,34.3,84.6,34.3z"/>
	</g>
	<g>
		<path d="M55.2,83.6c-1.3,0-2.3-1-2.3-2.3V62.8c0-1.3,1-2.3,2.3-2.3s2.3,1,2.3,2.3v18.5C57.5,82.6,56.5,83.6,55.2,83.6z"/>
	</g>
	<g>
		<path d="M42.4,89c-1.3,0-2.3-1-2.3-2.3V69.3c0-1.3,1-2.3,2.3-2.3c1.3,0,2.3,1,2.3,2.3v17.3C44.7,87.9,43.7,89,42.4,89z"/>
	</g>
	<g>
		<line x1="30.1" y1="34.1" x2="15.4" y2="20"/>
		<path d="M30.1,36.4c-0.6,0-1.1-0.2-1.6-0.6L13.8,21.6c-0.9-0.9-0.9-2.3-0.1-3.3c0.9-0.9,2.3-0.9,3.3-0.1l14.7,14.1
			c0.9,0.9,0.9,2.3,0.1,3.3C31.3,36.1,30.7,36.4,30.1,36.4z"/>
	</g>
	<g>
		<line x1="45.6" y1="13.3" x2="45.7" y2="22.7"/>
		<path d="M45.7,25c-1.3,0-2.3-1-2.3-2.3l-0.1-9.4c0-1.3,1-2.3,2.3-2.3c0,0,0,0,0,0c1.3,0,2.3,1,2.3,2.3l0.1,9.4
			C48.1,23.9,47,25,45.7,25C45.8,25,45.8,25,45.7,25z"/>
	</g>
	<g>
		<path d="M54.6,24.7c-1.3,0-2.3-1-2.3-2.3v-5.6c0-1.3,1-2.3,2.3-2.3s2.3,1,2.3,2.3v5.6C56.9,23.6,55.9,24.7,54.6,24.7z"/>
	</g>
</g>
</svg>
