<?xml version="1.0" encoding="utf-8"?>
<!-- Generator: Adobe Illustrator 26.0.1, SVG Export Plug-In . SVG Version: 6.00 Build 0)  -->
<svg version="1.1" id="Layer_1" xmlns="http://www.w3.org/2000/svg" xmlns:xlink="http://www.w3.org/1999/xlink" x="0px" y="0px"
	 viewBox="0 0 64 64" style="enable-background:new 0 0 64 64;" xml:space="preserve">
<style type="text/css">
	.st0{display:none;}
	.st1{display:inline;}
	.st2{fill:none;stroke:#000000;stroke-width:2;stroke-linecap:round;stroke-linejoin:round;stroke-miterlimit:10;}
	
		.st3{fill:none;stroke:#000000;stroke-width:2;stroke-linecap:round;stroke-linejoin:round;stroke-miterlimit:10;stroke-dasharray:2;}
</style>
<g class="st0">
	<g class="st1">
		<g>
			<path class="st2" d="M54.8,43.3l0.4-0.4c1-1,1-2.7,0-3.8l-0.4-0.4c-1-1-2.7-1-3.8,0L48.6,41l2.3,2.3C52,44.4,53.7,44.4,54.8,43.3
				z"/>
			<polygon class="st2" points="37.3,29.7 48.6,41 36.6,34.6 			"/>
			<path class="st2" d="M45.9,47h-0.6c-1.5,0-2.7-1.2-2.7-2.7v-0.6c0-1.5,1.2-2.7,2.7-2.7h3.3v3.3C48.6,45.8,47.4,47,45.9,47z"/>
			<polygon class="st2" points="48.6,25 48.6,41 52.6,28 			"/>
		</g>
		<g>
			<g>
				<rect x="9.2" y="11.9" transform="matrix(0.866 -0.5 0.5 0.866 -5.9151 15.6375)" class="st2" width="34" height="14"/>
				<circle class="st2" cx="26.2" cy="18.9" r="4"/>
				<line class="st2" x1="10.5" y1="25.6" x2="12.3" y2="18.9"/>
				<line class="st2" x1="39.9" y1="8.6" x2="33.1" y2="6.8"/>
				<line class="st2" x1="12.5" y1="29.1" x2="19.3" y2="31"/>
				<line class="st2" x1="41.9" y1="12.1" x2="40.1" y2="18.9"/>
			</g>
			<line class="st3" x1="25.2" y1="1" x2="26.2" y2="2.7"/>
			<line class="st3" x1="28.2" y1="6.2" x2="29.2" y2="7.9"/>
			<line class="st3" x1="31.2" y1="11.4" x2="32.2" y2="13.1"/>
			<line class="st3" x1="34.2" y1="16.6" x2="35.2" y2="18.3"/>
			<line class="st3" x1="37.2" y1="21.8" x2="38.2" y2="23.5"/>
			<line class="st3" x1="40.2" y1="27" x2="41.2" y2="28.7"/>
		</g>
	</g>
</g>
<g>
	<g>
		<path d="M62.6,50.4L62,49.9c-1.7-1.7-4.2-1.8-6.1-0.5l3.7-11.9c0.2-0.5,0-1.1-0.5-1.4L54,32.3c-0.4-0.3-0.9-0.3-1.3-0.1
			c-0.4,0.2-0.7,0.7-0.7,1.1v17.4L39.7,38.4c-0.3-0.3-0.9-0.5-1.3-0.3c-0.5,0.2-0.8,0.6-0.9,1l-0.9,6.3c-0.1,0.5,0.2,1.1,0.7,1.3
			l11,5.8c-2.2,0.4-4,2.3-4,4.6V58c0,2.6,2.1,4.7,4.7,4.7h0.8c2.6,0,4.7-2.1,4.7-4.7v-1.2l0.8,0.8c0.9,0.9,2.1,1.4,3.3,1.4
			c1.2,0,2.4-0.5,3.3-1.4l0.6-0.6c0.9-0.9,1.4-2.1,1.4-3.3C64,52.5,63.5,51.3,62.6,50.4z M54.6,35.8l2.4,1.8l-2.4,7.6V35.8z
			 M39.3,44.9l0.4-2.9l6.7,6.7L39.3,44.9z M52,58c0,1.2-1,2.2-2.2,2.2H49c-1.2,0-2.2-1-2.2-2.2v-0.8c0-1.2,1-2.2,2.2-2.2h3V58z
			 M60.8,55.3l-0.6,0.6c-0.8,0.8-2.2,0.8-3,0l-2.1-2.1l2.1-2.1c0.8-0.8,2.2-0.8,3,0l0.6,0.6c0.4,0.4,0.6,0.9,0.6,1.5
			C61.4,54.3,61.2,54.9,60.8,55.3z"/>
		<path d="M19.1,28.7c0.9,1.5,2.2,2.5,3.9,3c0.6,0.1,1.1,0.2,1.7,0.2c1.1,0,2.2-0.3,3.2-0.9c3.1-1.8,4.1-5.7,2.3-8.7
			c-0.9-1.5-2.2-2.5-3.9-3c-1.6-0.4-3.4-0.2-4.9,0.6C18.3,21.7,17.3,25.7,19.1,28.7z M22.7,22.2c0.6-0.3,1.3-0.5,1.9-0.5
			c1.3,0,2.6,0.7,3.3,1.9c1.1,1.8,0.4,4.2-1.4,5.2c-0.9,0.5-1.9,0.6-2.9,0.4c-1-0.3-1.8-0.9-2.3-1.8C20.2,25.6,20.8,23.2,22.7,22.2z
			"/>
		<path d="M16.7,41.8l20.8-12v0l1.3,2.2c0.2,0.4,0.7,0.6,1.1,0.6c0.2,0,0.4-0.1,0.6-0.2c0.6-0.4,0.8-1.1,0.5-1.7l-1.3-2.2
			c0,0,0,0,0,0l8.9-5.1c0.3-0.2,0.5-0.4,0.6-0.8c0.1-0.3,0-0.7-0.1-1l-9-15.5c-0.4-0.6-1.1-0.8-1.7-0.5l-8.9,5.1l-1.3-2.2
			C27.8,8,27,7.7,26.4,8.1c-0.6,0.4-0.8,1.1-0.5,1.7l1.3,2.2L0.6,27.4c-0.3,0.2-0.5,0.4-0.6,0.8c-0.1,0.3,0,0.7,0.1,1l9,15.5
			c0.2,0.4,0.7,0.6,1.1,0.6c0.2,0,0.4-0.1,0.6-0.2l5.1-2.9C16.2,42.2,16.5,42,16.7,41.8z M5.9,33.9l2-7.7l25.7-14.8l7.7,2.1l2,3.5
			l-2.1,7.7L15.4,39.6l-7.6-2.1L5.9,33.9z M44.4,22.8l0.7-2.8l1,1.8L44.4,22.8z M38.5,8.5l1,1.8l-2.8-0.7L38.5,8.5z M4.8,28L4,30.8
			L3,29L4.8,28z M10.7,42.3l-1-1.7l2.6,0.7L10.7,42.3z"/>
		<path d="M23.4,5.4c0.2,0.4,0.7,0.6,1.1,0.6c0.2,0,0.4-0.1,0.6-0.2c0.6-0.4,0.8-1.1,0.5-1.7l-1.3-2.2c-0.4-0.6-1.1-0.8-1.7-0.5
			c-0.6,0.4-0.8,1.1-0.5,1.7L23.4,5.4z"/>
		<path d="M31.1,18.7c0.2,0.4,0.7,0.6,1.1,0.6c0.2,0,0.4-0.1,0.6-0.2c0.6-0.4,0.8-1.1,0.5-1.7L32,15.2c-0.4-0.6-1.1-0.8-1.7-0.5
			c-0.6,0.4-0.8,1.1-0.5,1.7L31.1,18.7z"/>
		<path d="M34.9,25.4c0.2,0.4,0.7,0.6,1.1,0.6c0.2,0,0.4-0.1,0.6-0.2c0.6-0.4,0.8-1.1,0.5-1.7l-1.3-2.2c-0.4-0.6-1.1-0.8-1.7-0.5
			c-0.6,0.4-0.8,1.1-0.5,1.7L34.9,25.4z"/>
		<path d="M41.8,34.7c-0.6,0.4-0.8,1.1-0.5,1.7l1.3,2.2c0.2,0.4,0.7,0.6,1.1,0.6c0.2,0,0.4-0.1,0.6-0.2c0.6-0.4,0.8-1.1,0.5-1.7
			l-1.3-2.2C43.2,34.6,42.4,34.4,41.8,34.7z"/>
	</g>
</g>
</svg>
