<?xml version="1.0" encoding="utf-8"?>
<!-- Generator: Adobe Illustrator 26.0.1, SVG Export Plug-In . SVG Version: 6.00 Build 0)  -->
<svg version="1.0" id="Layer_1" xmlns="http://www.w3.org/2000/svg" xmlns:xlink="http://www.w3.org/1999/xlink" x="0px" y="0px"
	 viewBox="0 0 100 100" enable-background="new 0 0 100 100" xml:space="preserve">
<path d="M50,95c24.9,0,45-20.1,45-45S74.9,5,50,5C25.1,5,5,25.1,5,50c0,0,0,0,0,0C5,74.8,25.2,95,50,95z M61.2,89.9
	c4.5-3.9,8.1-10.1,10.5-17.8c4,0.5,8,1.2,11.9,2.1C78.1,81.8,70.2,87.4,61.2,89.9z M85.7,71c-4.3-1-8.6-1.8-13-2.4
	c1.4-5.5,2.1-11.2,2.2-16.9h16.5C91.1,58.6,89.1,65.2,85.7,71z M91.4,48.2H74.9c-0.1-5.7-0.8-11.4-2.2-16.9c4.4-0.5,8.7-1.3,13-2.4
	C89.1,34.8,91.1,41.4,91.4,48.2L91.4,48.2z M83.6,25.8c-3.9,0.9-7.9,1.6-11.9,2.1c-2.4-7.7-6.1-13.9-10.5-17.8
	C70.2,12.6,78.1,18.2,83.6,25.8z M51.8,9.3c6.9,1.1,12.8,8.4,16.3,19c-5,0.5-10.4,0.7-16.3,0.8L51.8,9.3z M51.8,32.6
	c6.3,0,12-0.3,17.3-0.9c1.4,5.4,2.1,10.9,2.2,16.5H51.8V32.6z M51.8,51.8h19.5c-0.1,5.6-0.9,11.1-2.2,16.5
	c-5.3-0.5-11.1-0.8-17.3-0.9L51.8,51.8z M51.8,70.9c5.9,0,11.3,0.3,16.3,0.8c-3.5,10.6-9.4,17.9-16.3,19V70.9z M48.2,90.7
	c-6.9-1.1-12.8-8.4-16.3-19c5-0.5,10.4-0.7,16.3-0.8L48.2,90.7z M48.2,67.4c-6.3,0-12,0.3-17.3,0.9c-1.4-5.4-2.1-10.9-2.2-16.5h19.5
	V67.4z M48.2,48.2H28.7c0.1-5.6,0.9-11.1,2.2-16.5c5.3,0.5,11.1,0.8,17.3,0.9V48.2z M48.2,9.3v19.8c-5.9,0-11.3-0.3-16.3-0.8
	C35.4,17.7,41.4,10.3,48.2,9.3z M38.8,10.1c-4.5,3.9-8.1,10.1-10.5,17.8c-4-0.5-8-1.2-11.9-2.1C21.9,18.2,29.8,12.6,38.8,10.1
	L38.8,10.1z M14.3,29c4.3,1,8.6,1.8,13,2.4c-1.4,5.5-2.1,11.2-2.2,16.9H8.6C8.9,41.4,10.9,34.8,14.3,29z M8.6,51.8h16.5
	c0.1,5.7,0.8,11.4,2.2,16.9c-4.4,0.5-8.7,1.3-13,2.4C10.9,65.2,8.9,58.6,8.6,51.8z M28.3,72.1c2.4,7.7,6.1,13.9,10.5,17.8
	c-9-2.5-17-8.1-22.4-15.7C20.3,73.3,24.3,72.6,28.3,72.1z"/>
</svg>
