<?xml version="1.0" encoding="utf-8"?>
<!-- Generator: Adobe Illustrator 26.0.1, SVG Export Plug-In . SVG Version: 6.00 Build 0)  -->
<svg version="1.0" id="grid-container" xmlns="http://www.w3.org/2000/svg" xmlns:xlink="http://www.w3.org/1999/xlink" x="0px"
	 y="0px" viewBox="0 0 700 700" enable-background="new 0 0 700 700" xml:space="preserve">
<g id="dot-grid">
	<g>
		<circle fill="#E6E6E6" cx="350" cy="154.5" r="3.8"/>
		<circle fill="#E6E6E6" cx="595.4" cy="594.5" r="3.8"/>
		<circle fill="#E6E6E6" cx="546.3" cy="594.5" r="3.8"/>
		<circle fill="#E6E6E6" cx="497.2" cy="594.5" r="3.8"/>
		<circle fill="#E6E6E6" cx="448.1" cy="594.5" r="3.8"/>
		<circle fill="#E6E6E6" cx="399.1" cy="594.5" r="3.8"/>
		<circle fill="#E6E6E6" cx="350" cy="594.5" r="3.8"/>
		<circle fill="#E6E6E6" cx="300.9" cy="594.5" r="3.8"/>
		<circle fill="#E6E6E6" cx="251.9" cy="594.5" r="3.8"/>
		<circle fill="#E6E6E6" cx="202.8" cy="594.5" r="3.8"/>
		<circle fill="#E6E6E6" cx="153.7" cy="594.5" r="3.8"/>
		<circle fill="#E6E6E6" cx="104.7" cy="594.5" r="3.8"/>
		<circle fill="#E6E6E6" cx="595.4" cy="545.7" r="3.8"/>
		<circle fill="#E6E6E6" cx="546.3" cy="545.7" r="3.8"/>
		<circle fill="#E6E6E6" cx="497.2" cy="545.7" r="3.8"/>
		<circle fill="#E6E6E6" cx="448.1" cy="545.7" r="3.8"/>
		<circle fill="#E6E6E6" cx="399.1" cy="545.7" r="3.8"/>
		<circle fill="#E6E6E6" cx="350" cy="545.7" r="3.8"/>
		<circle fill="#E6E6E6" cx="300.9" cy="545.7" r="3.8"/>
		<circle fill="#E6E6E6" cx="251.9" cy="545.7" r="3.8"/>
		<circle fill="#E6E6E6" cx="202.8" cy="545.7" r="3.8"/>
		<circle fill="#E6E6E6" cx="153.7" cy="545.7" r="3.8"/>
		<circle fill="#E6E6E6" cx="104.7" cy="545.7" r="3.8"/>
		<circle fill="#E6E6E6" cx="595.4" cy="496.8" r="3.8"/>
		<circle fill="#E6E6E6" cx="546.3" cy="496.8" r="3.8"/>
		<circle fill="#E6E6E6" cx="497.2" cy="496.8" r="3.8"/>
		<circle fill="#E6E6E6" cx="448.1" cy="496.8" r="3.8"/>
		<circle fill="#E6E6E6" cx="399.1" cy="496.8" r="3.8"/>
		<circle fill="#E6E6E6" cx="350" cy="496.8" r="3.8"/>
		<circle fill="#E6E6E6" cx="300.9" cy="496.8" r="3.8"/>
		<circle fill="#E6E6E6" cx="251.9" cy="496.8" r="3.8"/>
		<circle fill="#E6E6E6" cx="202.8" cy="496.8" r="3.8"/>
		<circle fill="#E6E6E6" cx="153.7" cy="496.8" r="3.8"/>
		<circle fill="#E6E6E6" cx="104.7" cy="496.8" r="3.8"/>
		<circle fill="#E6E6E6" cx="595.4" cy="447.9" r="3.8"/>
		<circle fill="#E6E6E6" cx="546.3" cy="447.9" r="3.8"/>
		<circle fill="#E6E6E6" cx="497.2" cy="447.9" r="3.8"/>
		<circle fill="#E6E6E6" cx="448.1" cy="447.9" r="3.8"/>
		<circle fill="#E6E6E6" cx="399.1" cy="447.9" r="3.8"/>
		<circle fill="#E6E6E6" cx="350" cy="447.9" r="3.8"/>
		<circle fill="#E6E6E6" cx="300.9" cy="447.9" r="3.8"/>
		<circle fill="#E6E6E6" cx="251.9" cy="447.9" r="3.8"/>
		<circle fill="#E6E6E6" cx="202.8" cy="447.9" r="3.8"/>
		<circle fill="#E6E6E6" cx="153.7" cy="447.9" r="3.8"/>
		<circle fill="#E6E6E6" cx="104.7" cy="447.9" r="3.8"/>
		<circle fill="#E6E6E6" cx="595.4" cy="399" r="3.8"/>
		<circle fill="#E6E6E6" cx="546.3" cy="399" r="3.8"/>
		<circle fill="#E6E6E6" cx="497.2" cy="399" r="3.8"/>
		<circle fill="#E6E6E6" cx="448.1" cy="399" r="3.8"/>
		<circle fill="#E6E6E6" cx="399.1" cy="399" r="3.8"/>
		<circle fill="#E6E6E6" cx="350" cy="399" r="3.8"/>
		<circle fill="#E6E6E6" cx="300.9" cy="399" r="3.8"/>
		<circle fill="#E6E6E6" cx="251.9" cy="399" r="3.8"/>
		<circle fill="#E6E6E6" cx="202.8" cy="399" r="3.8"/>
		<circle fill="#E6E6E6" cx="153.7" cy="399" r="3.8"/>
		<circle fill="#E6E6E6" cx="104.7" cy="399" r="3.8"/>
		<circle fill="#E6E6E6" cx="595.4" cy="350.1" r="3.8"/>
		<circle fill="#E6E6E6" cx="546.3" cy="350.1" r="3.8"/>
		<circle fill="#E6E6E6" cx="497.2" cy="350.1" r="3.8"/>
		<circle fill="#E6E6E6" cx="448.1" cy="350.1" r="3.8"/>
		<circle fill="#E6E6E6" cx="399.1" cy="350.1" r="3.8"/>
		<circle fill="#E6E6E6" cx="350" cy="350.1" r="3.8"/>
		<circle fill="#E6E6E6" cx="300.9" cy="350.1" r="3.8"/>
		<circle fill="#E6E6E6" cx="251.9" cy="350.1" r="3.8"/>
		<circle fill="#E6E6E6" cx="202.8" cy="350.1" r="3.8"/>
		<circle fill="#E6E6E6" cx="153.7" cy="350.1" r="3.8"/>
		<circle fill="#E6E6E6" cx="104.7" cy="350.1" r="3.8"/>
		<circle fill="#E6E6E6" cx="595.4" cy="301.2" r="3.8"/>
		<circle fill="#E6E6E6" cx="546.3" cy="301.2" r="3.8"/>
		<circle fill="#E6E6E6" cx="497.2" cy="301.2" r="3.8"/>
		<circle fill="#E6E6E6" cx="448.1" cy="301.2" r="3.8"/>
		<circle fill="#E6E6E6" cx="399.1" cy="301.2" r="3.8"/>
		<circle fill="#E6E6E6" cx="350" cy="301.2" r="3.8"/>
		<circle fill="#E6E6E6" cx="300.9" cy="301.2" r="3.8"/>
		<circle fill="#E6E6E6" cx="251.9" cy="301.2" r="3.8"/>
		<circle fill="#E6E6E6" cx="202.8" cy="301.2" r="3.8"/>
		<circle fill="#E6E6E6" cx="153.7" cy="301.2" r="3.8"/>
		<circle fill="#E6E6E6" cx="104.7" cy="301.2" r="3.8"/>
		<circle fill="#E6E6E6" cx="595.4" cy="252.3" r="3.8"/>
		<circle fill="#E6E6E6" cx="546.3" cy="252.3" r="3.8"/>
		<circle fill="#E6E6E6" cx="497.2" cy="252.3" r="3.8"/>
		<circle fill="#E6E6E6" cx="448.1" cy="252.3" r="3.8"/>
		<circle fill="#E6E6E6" cx="399.1" cy="252.3" r="3.8"/>
		<circle fill="#E6E6E6" cx="350" cy="252.3" r="3.8"/>
		<circle fill="#E6E6E6" cx="300.9" cy="252.3" r="3.8"/>
		<circle fill="#E6E6E6" cx="251.9" cy="252.3" r="3.8"/>
		<circle fill="#E6E6E6" cx="202.8" cy="252.3" r="3.8"/>
		<circle fill="#E6E6E6" cx="153.7" cy="252.3" r="3.8"/>
		<circle fill="#E6E6E6" cx="104.7" cy="252.3" r="3.8"/>
		<circle fill="#E6E6E6" cx="595.4" cy="203.4" r="3.8"/>
		<circle fill="#E6E6E6" cx="546.3" cy="203.4" r="3.8"/>
		<circle fill="#E6E6E6" cx="497.2" cy="203.4" r="3.8"/>
		<circle fill="#E6E6E6" cx="448.1" cy="203.4" r="3.8"/>
		<circle fill="#E6E6E6" cx="399.1" cy="203.4" r="3.8"/>
		<circle fill="#E6E6E6" cx="350" cy="203.4" r="3.8"/>
		<circle fill="#E6E6E6" cx="300.9" cy="203.4" r="3.8"/>
		<circle fill="#E6E6E6" cx="251.9" cy="203.4" r="3.8"/>
		<circle fill="#E6E6E6" cx="202.8" cy="203.4" r="3.8"/>
		<circle fill="#E6E6E6" cx="153.7" cy="203.4" r="3.8"/>
		<circle fill="#E6E6E6" cx="104.7" cy="203.4" r="3.8"/>
		<circle fill="#E6E6E6" cx="595.4" cy="154.5" r="3.8"/>
		<circle fill="#E6E6E6" cx="546.3" cy="154.5" r="3.8"/>
		<circle fill="#E6E6E6" cx="497.2" cy="154.5" r="3.8"/>
		<circle fill="#E6E6E6" cx="448.1" cy="154.5" r="3.8"/>
		<circle fill="#E6E6E6" cx="399.1" cy="154.5" r="3.8"/>
		<circle fill="#E6E6E6" cx="300.9" cy="154.5" r="3.8"/>
		<circle fill="#E6E6E6" cx="251.9" cy="154.5" r="3.8"/>
		<circle fill="#E6E6E6" cx="202.8" cy="154.5" r="3.8"/>
		<circle fill="#E6E6E6" cx="153.7" cy="154.5" r="3.8"/>
		<circle fill="#E6E6E6" cx="104.7" cy="154.5" r="3.8"/>
		<circle fill="#E6E6E6" cx="595.4" cy="105.7" r="3.8"/>
		<circle fill="#E6E6E6" cx="546.3" cy="105.7" r="3.8"/>
		<circle fill="#E6E6E6" cx="497.2" cy="105.7" r="3.8"/>
		<circle fill="#E6E6E6" cx="448.1" cy="105.7" r="3.8"/>
		<circle fill="#E6E6E6" cx="399.1" cy="105.7" r="3.8"/>
		<circle fill="#E6E6E6" cx="350" cy="105.7" r="3.8"/>
		<circle fill="#E6E6E6" cx="300.9" cy="105.7" r="3.8"/>
		<circle fill="#E6E6E6" cx="251.9" cy="105.7" r="3.8"/>
		<circle fill="#E6E6E6" cx="202.8" cy="105.7" r="3.8"/>
		<circle fill="#E6E6E6" cx="153.7" cy="105.7" r="3.8"/>
		<circle fill="#E6E6E6" cx="104.7" cy="105.7" r="3.8"/>
	</g>
</g>
<g id="line-grid">
	<g>
		<line fill="none" stroke="#E6E6E6" stroke-linejoin="round" stroke-miterlimit="10" x1="644.4" y1="618.9" x2="55.6" y2="618.9"/>
		
			<line fill="none" stroke="#E6E6E6" stroke-width="3" stroke-linecap="square" stroke-linejoin="round" stroke-miterlimit="10" x1="644.4" y1="643.4" x2="55.6" y2="643.4"/>
		<line fill="none" stroke="#E6E6E6" stroke-linejoin="round" stroke-miterlimit="10" x1="644.4" y1="619" x2="55.6" y2="619"/>
		<line fill="none" stroke="#E6E6E6" stroke-linejoin="round" stroke-miterlimit="10" x1="644.4" y1="594.5" x2="55.6" y2="594.5"/>
		<line fill="none" stroke="#E6E6E6" stroke-linejoin="round" stroke-miterlimit="10" x1="644.4" y1="570.1" x2="55.6" y2="570.1"/>
		<line fill="none" stroke="#E6E6E6" stroke-linejoin="round" stroke-miterlimit="10" x1="644.4" y1="545.7" x2="55.6" y2="545.7"/>
		<line fill="none" stroke="#E6E6E6" stroke-linejoin="round" stroke-miterlimit="10" x1="644.4" y1="521.2" x2="55.6" y2="521.2"/>
		<line fill="none" stroke="#E6E6E6" stroke-linejoin="round" stroke-miterlimit="10" x1="644.4" y1="496.8" x2="55.6" y2="496.8"/>
		<line fill="none" stroke="#E6E6E6" stroke-linejoin="round" stroke-miterlimit="10" x1="644.4" y1="472.3" x2="55.6" y2="472.3"/>
		<line fill="none" stroke="#E6E6E6" stroke-linejoin="round" stroke-miterlimit="10" x1="644.4" y1="447.9" x2="55.6" y2="447.9"/>
		<line fill="none" stroke="#E6E6E6" stroke-linejoin="round" stroke-miterlimit="10" x1="644.4" y1="423.4" x2="55.6" y2="423.4"/>
		<line fill="none" stroke="#E6E6E6" stroke-linejoin="round" stroke-miterlimit="10" x1="644.4" y1="399" x2="55.6" y2="399"/>
		<line fill="none" stroke="#E6E6E6" stroke-linejoin="round" stroke-miterlimit="10" x1="644.4" y1="374.5" x2="55.6" y2="374.5"/>
		<line fill="none" stroke="#E6E6E6" stroke-linejoin="round" stroke-miterlimit="10" x1="644.4" y1="350.1" x2="55.6" y2="350.1"/>
		<line fill="none" stroke="#E6E6E6" stroke-linejoin="round" stroke-miterlimit="10" x1="644.4" y1="325.7" x2="55.6" y2="325.7"/>
		<line fill="none" stroke="#E6E6E6" stroke-linejoin="round" stroke-miterlimit="10" x1="644.4" y1="301.2" x2="55.6" y2="301.2"/>
		<line fill="none" stroke="#E6E6E6" stroke-linejoin="round" stroke-miterlimit="10" x1="644.4" y1="276.8" x2="55.6" y2="276.8"/>
		<line fill="none" stroke="#E6E6E6" stroke-linejoin="round" stroke-miterlimit="10" x1="644.4" y1="252.3" x2="55.6" y2="252.3"/>
		<line fill="none" stroke="#E6E6E6" stroke-linejoin="round" stroke-miterlimit="10" x1="644.4" y1="227.9" x2="55.6" y2="227.9"/>
		<line fill="none" stroke="#E6E6E6" stroke-linejoin="round" stroke-miterlimit="10" x1="644.4" y1="203.4" x2="55.6" y2="203.4"/>
		<line fill="none" stroke="#E6E6E6" stroke-linejoin="round" stroke-miterlimit="10" x1="644.4" y1="179" x2="55.6" y2="179"/>
		<line fill="none" stroke="#E6E6E6" stroke-linejoin="round" stroke-miterlimit="10" x1="644.4" y1="154.5" x2="55.6" y2="154.5"/>
		<line fill="none" stroke="#E6E6E6" stroke-linejoin="round" stroke-miterlimit="10" x1="644.4" y1="130.1" x2="55.6" y2="130.1"/>
		<line fill="none" stroke="#E6E6E6" stroke-linejoin="round" stroke-miterlimit="10" x1="644.4" y1="105.7" x2="55.6" y2="105.7"/>
		<line fill="none" stroke="#E6E6E6" stroke-linejoin="round" stroke-miterlimit="10" x1="644.4" y1="81.2" x2="55.6" y2="81.2"/>
		
			<line fill="none" stroke="#E6E6E6" stroke-width="3" stroke-linecap="square" stroke-linejoin="round" stroke-miterlimit="10" x1="644.4" y1="56.8" x2="55.6" y2="56.8"/>
		
			<line fill="none" stroke="#E6E6E6" stroke-width="3" stroke-linecap="square" stroke-linejoin="round" stroke-miterlimit="10" x1="55.6" y1="56.8" x2="55.6" y2="643.4"/>
		<line fill="none" stroke="#E6E6E6" stroke-linejoin="round" stroke-miterlimit="10" x1="80.1" y1="56.8" x2="80.1" y2="643.4"/>
		<line fill="none" stroke="#E6E6E6" stroke-linejoin="round" stroke-miterlimit="10" x1="104.7" y1="56.8" x2="104.7" y2="643.4"/>
		<line fill="none" stroke="#E6E6E6" stroke-linejoin="round" stroke-miterlimit="10" x1="129.2" y1="56.8" x2="129.2" y2="643.4"/>
		<line fill="none" stroke="#E6E6E6" stroke-linejoin="round" stroke-miterlimit="10" x1="153.7" y1="56.8" x2="153.7" y2="643.4"/>
		<line fill="none" stroke="#E6E6E6" stroke-linejoin="round" stroke-miterlimit="10" x1="178.3" y1="56.8" x2="178.3" y2="643.4"/>
		<line fill="none" stroke="#E6E6E6" stroke-linejoin="round" stroke-miterlimit="10" x1="202.8" y1="56.8" x2="202.8" y2="643.4"/>
		<line fill="none" stroke="#E6E6E6" stroke-linejoin="round" stroke-miterlimit="10" x1="227.3" y1="56.8" x2="227.3" y2="643.4"/>
		<line fill="none" stroke="#E6E6E6" stroke-linejoin="round" stroke-miterlimit="10" x1="251.9" y1="56.8" x2="251.9" y2="643.4"/>
		<line fill="none" stroke="#E6E6E6" stroke-linejoin="round" stroke-miterlimit="10" x1="276.4" y1="56.8" x2="276.4" y2="643.4"/>
		<line fill="none" stroke="#E6E6E6" stroke-linejoin="round" stroke-miterlimit="10" x1="300.9" y1="56.8" x2="300.9" y2="643.4"/>
		<line fill="none" stroke="#E6E6E6" stroke-linejoin="round" stroke-miterlimit="10" x1="325.5" y1="56.8" x2="325.5" y2="643.4"/>
		<line fill="none" stroke="#E6E6E6" stroke-linejoin="round" stroke-miterlimit="10" x1="350" y1="56.8" x2="350" y2="643.4"/>
		<line fill="none" stroke="#E6E6E6" stroke-linejoin="round" stroke-miterlimit="10" x1="374.5" y1="56.8" x2="374.5" y2="643.4"/>
		<line fill="none" stroke="#E6E6E6" stroke-linejoin="round" stroke-miterlimit="10" x1="399.1" y1="56.8" x2="399.1" y2="643.4"/>
		<line fill="none" stroke="#E6E6E6" stroke-linejoin="round" stroke-miterlimit="10" x1="423.6" y1="56.8" x2="423.6" y2="643.4"/>
		<line fill="none" stroke="#E6E6E6" stroke-linejoin="round" stroke-miterlimit="10" x1="448.1" y1="56.8" x2="448.1" y2="643.4"/>
		<line fill="none" stroke="#E6E6E6" stroke-linejoin="round" stroke-miterlimit="10" x1="472.7" y1="56.8" x2="472.7" y2="643.4"/>
		<line fill="none" stroke="#E6E6E6" stroke-linejoin="round" stroke-miterlimit="10" x1="497.2" y1="56.8" x2="497.2" y2="643.4"/>
		<line fill="none" stroke="#E6E6E6" stroke-linejoin="round" stroke-miterlimit="10" x1="521.7" y1="56.8" x2="521.7" y2="643.4"/>
		<line fill="none" stroke="#E6E6E6" stroke-linejoin="round" stroke-miterlimit="10" x1="546.3" y1="56.8" x2="546.3" y2="643.4"/>
		<line fill="none" stroke="#E6E6E6" stroke-linejoin="round" stroke-miterlimit="10" x1="570.8" y1="56.8" x2="570.8" y2="643.4"/>
		<line fill="none" stroke="#E6E6E6" stroke-linejoin="round" stroke-miterlimit="10" x1="595.4" y1="56.8" x2="595.4" y2="643.4"/>
		<line fill="none" stroke="#E6E6E6" stroke-linejoin="round" stroke-miterlimit="10" x1="619.9" y1="56.8" x2="619.9" y2="643.4"/>
		
			<line fill="none" stroke="#E6E6E6" stroke-width="3" stroke-linecap="square" stroke-linejoin="round" stroke-miterlimit="10" x1="644.4" y1="56.8" x2="644.4" y2="643.4"/>
		<line fill="none" stroke="#E6E6E6" stroke-linejoin="round" stroke-miterlimit="10" x1="80.1" y1="56.8" x2="80.1" y2="643.4"/>
	</g>
</g>
</svg>
