<?xml version="1.0" encoding="utf-8"?>
<!-- Generator: Adobe Illustrator 26.0.1, SVG Export Plug-In . SVG Version: 6.00 Build 0)  -->
<svg version="1.0" xmlns="http://www.w3.org/2000/svg" xmlns:xlink="http://www.w3.org/1999/xlink" x="0px" y="0px"
	 viewBox="0 0 700 700" enable-background="new 0 0 700 700" xml:space="preserve"    id="graph">
<g id="sixth-col">
	<circle fill="#F2B9BE" cx="380.6" cy="545.9" r="77.2"/>
</g>
<g id="fifth-col">
	<circle fill="#ECC5BF" cx="452" cy="420.2" r="45.8"/>
</g>
<g id="fourth-col">
	<circle fill="#E6D2C0" cx="423" cy="333.8" r="38.6"/>
</g>
<g id="third-col">
	<circle fill="#E1DEC1" cx="294.7" cy="386.9" r="88.5"/>
</g>
<g id="second-col">
	<circle fill="#D8F1C4" cx="372.4" cy="214.1" r="77.2"/>
</g>
<g id="first-col">
	<circle fill="#D4FBC4" cx="157" cy="204.8" r="127.9"/>
	<g id="header-text">
		<rect x="589.2" y="138.7" fill="#D4FBC4" width="81.7" height="17.6"/>
		<text transform="matrix(1 0 0 1 599.0013 152.3726)" fill="#FFFFFF" font-family="'Helvetica-Bold'" font-size="11.3553px">Revenue</text>
	</g>
	<g id="data-text">
		<rect x="589.2" y="158.9" fill="#D4FBC4" width="81.7" height="48.1"/>
		<text transform="matrix(1 0 0 1 599.0013 168.8306)"><tspan x="0" y="0" fill="#FFFFFF" font-family="'Helvetica'" font-size="6.3874px">$ 10,0000.00</tspan><tspan x="0" y="7.7" fill="#FFFFFF" font-family="'Helvetica'" font-size="6.3874px">-$ 5,0000.00</tspan><tspan x="0" y="15.3" fill="#FFFFFF" font-family="'Helvetica'" font-size="6.3874px">$ 10,0000.00</tspan><tspan x="0" y="23" fill="#FFFFFF" font-family="'Helvetica'" font-size="6.3874px">$ 10,0000.00</tspan><tspan x="0" y="30.7" fill="#FFFFFF" font-family="'Helvetica'" font-size="6.3874px">$ 10,0000.00</tspan></text>
	</g>
</g>
<g id="grid-container">
	<g>
		<rect x="589.2" y="209.6" fill="#D8F1C4" width="81.7" height="17.6"/>
		<text transform="matrix(1 0 0 1 599.0013 223.2303)" fill="#FFFFFF" font-family="'Helvetica-Bold'" font-size="11.3553px">Revenue</text>
		<rect x="589.2" y="229.8" fill="#D8F1C4" width="81.7" height="48.1"/>
		<text transform="matrix(1 0 0 1 599.0013 239.6883)"><tspan x="0" y="0" fill="#FFFFFF" font-family="'Helvetica'" font-size="6.3874px">$ 10,0000.00</tspan><tspan x="0" y="7.7" fill="#FFFFFF" font-family="'Helvetica'" font-size="6.3874px">-$ 5,0000.00</tspan><tspan x="0" y="15.3" fill="#FFFFFF" font-family="'Helvetica'" font-size="6.3874px">$ 10,0000.00</tspan><tspan x="0" y="23" fill="#FFFFFF" font-family="'Helvetica'" font-size="6.3874px">$ 10,0000.00</tspan><tspan x="0" y="30.7" fill="#FFFFFF" font-family="'Helvetica'" font-size="6.3874px">$ 10,0000.00</tspan></text>
		<rect x="589.2" y="280.4" fill="#E1DEC1" width="81.7" height="17.6"/>
		<text transform="matrix(1 0 0 1 599.0013 294.0881)" fill="#FFFFFF" font-family="'Helvetica-Bold'" font-size="11.3553px">Revenue</text>
		<rect x="589.2" y="300.6" fill="#E1DEC1" width="81.7" height="48.1"/>
		<text transform="matrix(1 0 0 1 599.0013 310.5461)"><tspan x="0" y="0" fill="#FFFFFF" font-family="'Helvetica'" font-size="6.3874px">$ 10,0000.00</tspan><tspan x="0" y="7.7" fill="#FFFFFF" font-family="'Helvetica'" font-size="6.3874px">-$ 5,0000.00</tspan><tspan x="0" y="15.3" fill="#FFFFFF" font-family="'Helvetica'" font-size="6.3874px">$ 10,0000.00</tspan><tspan x="0" y="23" fill="#FFFFFF" font-family="'Helvetica'" font-size="6.3874px">$ 10,0000.00</tspan><tspan x="0" y="30.7" fill="#FFFFFF" font-family="'Helvetica'" font-size="6.3874px">$ 10,0000.00</tspan></text>
		<rect x="589.2" y="351.3" fill="#E6D2C0" width="81.7" height="17.6"/>
		<text transform="matrix(1 0 0 1 599.0013 364.9458)" fill="#FFFFFF" font-family="'Helvetica-Bold'" font-size="11.3553px">Revenue</text>
		<rect x="589.2" y="371.5" fill="#E6D2C0" width="81.7" height="48.1"/>
		<text transform="matrix(1 0 0 1 599.0013 381.4038)"><tspan x="0" y="0" fill="#FFFFFF" font-family="'Helvetica'" font-size="6.3874px">$ 10,0000.00</tspan><tspan x="0" y="7.7" fill="#FFFFFF" font-family="'Helvetica'" font-size="6.3874px">-$ 5,0000.00</tspan><tspan x="0" y="15.3" fill="#FFFFFF" font-family="'Helvetica'" font-size="6.3874px">$ 10,0000.00</tspan><tspan x="0" y="23" fill="#FFFFFF" font-family="'Helvetica'" font-size="6.3874px">$ 10,0000.00</tspan><tspan x="0" y="30.7" fill="#FFFFFF" font-family="'Helvetica'" font-size="6.3874px">$ 10,0000.00</tspan></text>
		<rect x="589.2" y="422.1" fill="#ECC5BF" width="81.7" height="17.6"/>
		<text transform="matrix(1 0 0 1 599.0013 435.8036)" fill="#FFFFFF" font-family="'Helvetica-Bold'" font-size="11.3553px">Revenue</text>
		<rect x="589.2" y="442.3" fill="#ECC5BF" width="81.7" height="48.1"/>
		<text transform="matrix(1 0 0 1 599.0013 452.2616)"><tspan x="0" y="0" fill="#FFFFFF" font-family="'Helvetica'" font-size="6.3874px">$ 10,0000.00</tspan><tspan x="0" y="7.7" fill="#FFFFFF" font-family="'Helvetica'" font-size="6.3874px">-$ 5,0000.00</tspan><tspan x="0" y="15.3" fill="#FFFFFF" font-family="'Helvetica'" font-size="6.3874px">$ 10,0000.00</tspan><tspan x="0" y="23" fill="#FFFFFF" font-family="'Helvetica'" font-size="6.3874px">$ 10,0000.00</tspan><tspan x="0" y="30.7" fill="#FFFFFF" font-family="'Helvetica'" font-size="6.3874px">$ 10,0000.00</tspan></text>
		<rect x="589.2" y="493" fill="#F2B9BE" width="81.7" height="17.6"/>
		<text transform="matrix(1 0 0 1 599.0013 506.6613)" fill="#FFFFFF" font-family="'Helvetica-Bold'" font-size="11.3553px">Revenue</text>
		<rect x="589.2" y="513.2" fill="#F2B9BE" width="81.7" height="48.1"/>
		<text transform="matrix(1 0 0 1 599.0013 523.1193)"><tspan x="0" y="0" fill="#FFFFFF" font-family="'Helvetica'" font-size="6.3874px">$ 10,0000.00</tspan><tspan x="0" y="7.7" fill="#FFFFFF" font-family="'Helvetica'" font-size="6.3874px">-$ 5,0000.00</tspan><tspan x="0" y="15.3" fill="#FFFFFF" font-family="'Helvetica'" font-size="6.3874px">$ 10,0000.00</tspan><tspan x="0" y="23" fill="#FFFFFF" font-family="'Helvetica'" font-size="6.3874px">$ 10,0000.00</tspan><tspan x="0" y="30.7" fill="#FFFFFF" font-family="'Helvetica'" font-size="6.3874px">$ 10,0000.00</tspan></text>
	</g>
</g>
</svg>
